<svg width="20" height="20" viewBox="0 0 20 20" fill="none" xmlns="http://www.w3.org/2000/svg">
<path d="M10.5164 4.97653V10.2347L15.0235 12.9108L14.2723 14.1784L9.01408 10.9859V4.97653H10.5164ZM4.31925 15.6807C5.91549 17.2457 7.80908 18.0282 10 18.0282C12.1909 18.0282 14.0689 17.2457 15.6338 15.6807C17.23 14.0845 18.0282 12.1909 18.0282 10C18.0282 7.80908 17.23 5.93114 15.6338 4.3662C14.0689 2.76995 12.1909 1.97183 10 1.97183C7.80908 1.97183 5.91549 2.76995 4.31925 4.3662C2.7543 5.93114 1.97183 7.80908 1.97183 10C1.97183 12.1909 2.7543 14.0845 4.31925 15.6807ZM2.9108 2.95775C4.88263 0.985915 7.2457 0 10 0C12.7543 0 15.1017 0.985915 17.0423 2.95775C19.0141 4.89828 20 7.2457 20 10C20 12.7543 19.0141 15.1174 17.0423 17.0892C15.1017 19.0297 12.7543 20 10 20C7.2457 20 4.88263 19.0297 2.9108 17.0892C0.970266 15.1174 0 12.7543 0 10C0 7.2457 0.970266 4.89828 2.9108 2.95775Z" fill="white"/>
</svg>
