<svg width="200" height="55" viewBox="0 0 200 55" fill="none" xmlns="http://www.w3.org/2000/svg">
<path d="M101.7 12.8818V12.8108C101.7 5.63183 107.221 0 114.677 0C119.706 0 122.941 2.11166 125.121 5.1383L119.986 9.11487C118.58 7.32094 116.996 6.22908 114.606 6.22908C111.159 6.22908 108.734 9.14981 108.734 12.7399V12.8108C108.734 16.5057 111.16 19.3915 114.606 19.3915C117.173 19.3915 118.649 18.1948 120.162 16.4009L125.296 20.0597C122.94 23.2621 119.88 25.6195 114.394 25.6195C107.362 25.6206 101.7 20.2377 101.7 12.8818Z" fill="#164E63"/>
<path d="M127.902 14.3241V0.494614H134.83V14.1844C134.83 17.7384 136.588 19.4275 139.367 19.4275C142.145 19.4275 143.904 17.8432 143.904 14.3591V0.494614H150.832V14.1494C150.832 22.1375 146.295 25.5867 139.297 25.5867C132.263 25.5867 127.902 22.0665 127.902 14.3241Z" fill="#164E63"/>
<path d="M154.877 0.494614H167.502C170.596 0.494614 172.776 1.26984 174.219 2.71219C175.203 3.69814 175.801 4.99964 175.801 6.68875V6.75972C175.801 9.61058 174.219 11.2986 172.003 12.2496C174.992 13.2356 176.891 14.9247 176.891 18.268V18.3389C176.891 22.5961 173.48 25.1314 167.572 25.1314H154.877V0.494614ZM165.814 10.3126C167.924 10.3126 169.049 9.60948 169.049 8.16604V8.09507C169.049 6.72369 168.029 5.9845 165.955 5.9845H161.524V10.3126H165.814ZM166.799 19.6382C168.909 19.6382 170.07 18.8292 170.07 17.3868V17.3158C170.07 15.9434 169.015 15.0983 166.729 15.0983H161.525V19.6371H166.799V19.6382Z" fill="#164E63"/>
<path d="M180.023 0.494614H199.822V6.30114H186.775V10.0309H198.591V15.4149H186.775V19.3216H199.998V25.1281H180.023V0.494614Z" fill="#164E63"/>
<path d="M101.7 30.1539H103.916V47.7591H114.971V49.8086H101.7V30.1539Z" fill="#0EA5E9"/>
<path d="M117.808 42.6219V42.5662C117.808 38.439 120.979 34.9844 125.385 34.9844C129.762 34.9844 132.933 38.4095 132.933 42.5095V42.5652C132.933 46.6924 129.707 50.146 125.329 50.146C120.979 50.146 117.808 46.7208 117.808 42.6219ZM130.715 42.6219V42.5662C130.715 39.449 128.386 36.894 125.327 36.894C122.185 36.894 120.024 39.449 120.024 42.5095V42.5652C120.024 45.6824 122.325 48.209 125.384 48.209C128.526 48.2101 130.715 45.654 130.715 42.6219Z" fill="#0EA5E9"/>
<path d="M135.15 53.6563L135.88 51.9432C136.582 52.3079 137.227 52.4771 138.153 52.4771C139.472 52.4771 140.257 51.8034 141.127 49.754L134.534 35.2923H136.919L142.194 47.3945L146.852 35.2923H149.153L143.064 50.2868C141.829 53.2916 140.398 54.3857 138.238 54.3857C137.03 54.3857 136.132 54.1334 135.15 53.6563Z" fill="#0EA5E9"/>
<path d="M150.78 45.5973V45.5416C150.78 42.4243 153.305 40.7963 156.981 40.7963C158.86 40.7963 160.094 41.0486 161.414 41.4132V40.9645C161.414 38.3811 159.842 37.0327 157.12 37.0327C155.408 37.0327 154.062 37.4258 152.715 38.0721L152.07 36.3033C153.669 35.5456 155.212 35.0673 157.345 35.0673C159.393 35.0673 160.964 35.6013 162.031 36.668C163.042 37.6791 163.547 39.1105 163.547 40.9361V49.8097H161.415V47.6478C160.404 48.9668 158.749 50.1187 156.196 50.1187C153.474 50.1187 150.78 48.6021 150.78 45.5973ZM161.443 44.4748V43.1264C160.349 42.8174 159.002 42.5095 157.206 42.5095C154.512 42.5095 152.97 43.6603 152.97 45.4291V45.4848C152.97 47.3104 154.682 48.3771 156.617 48.3771C159.282 48.3771 161.443 46.806 161.443 44.4748Z" fill="#0EA5E9"/>
<path d="M168.318 29.3121H170.478V49.8097H168.318V29.3121Z" fill="#0EA5E9"/>
<path d="M176.259 45.9619V37.2019H174.238V35.2923H176.259V30.9128H178.419V35.2923H183.022V37.2019H178.419V45.6813C178.419 47.4774 179.401 48.0965 180.86 48.0965C181.617 48.0965 182.208 47.9557 182.965 47.591V49.445C182.208 49.8664 181.394 50.0619 180.355 50.0619C177.999 50.0619 176.259 48.9111 176.259 45.9619Z" fill="#0EA5E9"/>
<path d="M185.997 53.6563L186.727 51.9432C187.428 52.3079 188.074 52.4771 189 52.4771C190.319 52.4771 191.104 51.8034 191.974 49.754L185.38 35.2923H187.766L193.041 47.3945L197.699 35.2923H200L193.911 50.2868C192.676 53.2916 191.245 54.3857 189.085 54.3857C187.877 54.3857 186.979 54.1334 185.997 53.6563Z" fill="#0EA5E9"/>
<path d="M52.4727 54.0199H26.9816C21.0166 54.0199 15.5066 52.084 11.0418 48.8062C8.81273 47.1695 6.8444 45.1998 5.20995 42.9691C1.93559 38.5012 0 32.9884 0 27.0181C0 21.0522 1.9345 15.5394 5.2045 11.0715C6.83895 8.84079 8.81273 6.87107 11.0418 5.23436C13.99 3.07029 17.3887 1.49037 21.0777 0.668195C22.9794 0.244552 24.9521 0.0207214 26.9816 0.0207214H43.1024V0.0403758C43.1024 0.768648 43.0315 1.47727 42.8984 2.16623C42.7314 3.03754 42.4608 3.86408 42.0986 4.64913C41.3097 6.36117 40.0932 7.83628 38.5907 8.94124C36.7654 10.2831 34.5166 11.0715 32.0824 11.0715H26.9816C18.1776 11.0715 11.0418 18.2122 11.0418 27.0181C11.0418 35.8284 18.1776 42.9691 26.9816 42.9691H41.8738C43.6108 43.039 45.2464 43.5107 46.6866 44.2947C46.691 44.2968 46.6954 44.299 46.6997 44.3023C46.9267 44.4399 47.1482 44.5796 47.3609 44.715C48.1083 45.1867 48.7979 45.7534 49.4045 46.3899C50.943 47.995 52.0046 50.0717 52.3505 52.3788C52.3527 52.3897 52.3537 52.4006 52.3548 52.4116C52.3668 52.4924 52.3778 52.5732 52.3876 52.655C52.3985 52.7413 52.4083 52.8276 52.417 52.9149C52.4541 53.2774 52.4727 53.6465 52.4727 54.0199Z" fill="#164E63"/>
<path d="M92.328 54.0002V54.0188H76.3883C74.2967 54.0188 72.2618 53.7808 70.3033 53.3287C66.6808 52.4967 63.3345 50.9266 60.43 48.791C58.2096 47.1597 56.2468 45.1944 54.6167 42.9681C53.4612 41.398 52.477 39.7001 51.6882 37.8975C50.2196 34.5673 49.4067 30.8899 49.4067 27.0181V0.04039C53.7274 0.04039 57.4688 2.52874 59.2713 6.14827C60.0132 7.63211 60.4311 9.30266 60.4311 11.0715V27.017C60.4311 35.8273 67.5668 42.9681 76.3654 42.9681H81.3047C85.7826 42.9681 89.6428 45.642 91.3635 49.4854C91.981 50.8655 92.328 52.3919 92.328 54.0002Z" fill="#0EA5E9"/>
</svg>
