<svg width="11" height="20" viewBox="0 0 11 20" fill="none" xmlns="http://www.w3.org/2000/svg">
<path d="M6.6527 20C5.41895 20 4.21198 20 2.98014 20C2.98014 19.9041 2.98014 19.8216 2.98014 19.7372C2.98014 16.9284 2.97822 14.1196 2.98396 11.3109C2.98396 11.1171 2.94379 11.0538 2.73912 11.0576C1.90897 11.0711 1.0769 11.0634 0.246751 11.0634C0.170239 11.0634 0.0918142 11.0634 0 11.0634C0 9.87389 0 8.70357 0 7.51407C0.987003 7.51407 1.96635 7.51407 2.96675 7.51407C2.97248 7.42006 2.98014 7.34524 2.98014 7.26849C2.9897 6.21905 2.96866 5.16768 3.01265 4.12015C3.11212 1.81021 4.73417 0.17177 7.03335 0.0259605C8.10643 -0.0411888 9.17568 0.0297976 10.2564 0.148748C10.2564 1.20779 10.2564 2.2534 10.2564 3.32203C10.1015 3.32203 9.95228 3.32203 9.80308 3.32203C9.22733 3.32587 8.65158 3.32779 8.07582 3.33738C7.94575 3.3393 7.81568 3.36232 7.68753 3.3911C7.03335 3.54075 6.69287 3.93213 6.66609 4.67269C6.63358 5.58976 6.65462 6.51066 6.6527 7.42773C6.6527 7.445 6.66418 7.46419 6.67757 7.50256C7.75639 7.50256 8.83903 7.50256 9.96184 7.50256C9.80308 8.69973 9.64814 9.87005 9.48938 11.0615C8.54255 11.0615 7.6091 11.0615 6.65079 11.0615C6.6527 14.0544 6.6527 17.0224 6.6527 20Z" fill="white"/>
</svg>
