<svg width="20" height="20" viewBox="0 0 20 20" fill="none" xmlns="http://www.w3.org/2000/svg">
<path d="M11.1357 8.38677C11.3292 8.15299 11.4835 7.94449 11.6598 7.75643C12.5415 6.81706 13.6275 6.31674 14.9163 6.26713C15.7863 6.23373 16.6317 6.34981 17.4275 6.72303C18.5841 7.26583 19.3014 8.18509 19.6875 9.38418C19.9459 10.1867 20.0003 11.0152 20.0003 11.8505C20.0003 14.4607 20.0003 17.0709 20.0003 19.6812C20.0003 19.7191 19.9968 19.7571 19.9993 19.7947C20.0104 19.9497 19.9355 20.0006 19.7857 19.9999C18.5595 19.9967 17.3329 19.9986 16.1066 19.9977C15.9011 19.9973 15.8897 19.9831 15.8894 19.7548C15.8888 17.6578 15.8923 15.5609 15.8865 13.4643C15.8852 13.0382 15.8651 12.6108 15.8249 12.1867C15.8019 11.9416 15.74 11.6961 15.6638 11.4613C15.3746 10.5693 14.7656 10.0722 13.8187 10.0184C12.7406 9.95714 11.8702 10.3615 11.4543 11.3096C11.311 11.6361 11.2384 11.9983 11.1704 12.3514C11.1227 12.5982 11.1273 12.8569 11.1269 13.1102C11.124 15.3096 11.1253 17.5093 11.125 19.7087C11.125 19.998 11.1243 19.9986 10.8404 19.999C9.70584 19.9993 8.5713 19.9993 7.43676 19.999C7.17096 19.999 7.1635 19.9915 7.1635 19.7266C7.16318 15.4571 7.16318 11.1877 7.1635 6.91823C7.1635 6.67115 7.17193 6.66304 7.41893 6.66272C8.57519 6.66207 9.73112 6.66207 10.8874 6.66272C11.1153 6.66272 11.1247 6.67277 11.125 6.90202C11.1256 7.32906 11.125 7.75578 11.1256 8.18282C11.1256 8.23989 11.1311 8.29696 11.1357 8.38677Z" fill="white"/>
<path d="M4.52293 13.3403C4.52293 15.4421 4.52293 17.5439 4.52293 19.6457C4.52293 19.7161 4.52098 19.7861 4.52033 19.8565C4.51936 19.9495 4.47236 19.9953 4.37997 19.9959C4.34205 19.9962 4.30445 19.9985 4.26652 19.9985C3.06196 19.9985 1.85741 19.9988 0.652853 19.9985C0.40131 19.9985 0.397744 19.9946 0.397744 19.7466C0.39742 15.4674 0.39742 11.1879 0.397744 6.9087C0.397744 6.66714 0.401634 6.66292 0.641184 6.6626C1.85125 6.66195 3.06099 6.66195 4.27106 6.6626C4.5158 6.6626 4.52228 6.66941 4.52228 6.92135C4.52293 9.0611 4.52293 11.2005 4.52293 13.3403Z" fill="white"/>
<path d="M2.1081e-05 2.44911C0.0055317 1.08562 1.09858 -0.00549152 2.45289 2.07943e-05C3.80494 0.00553311 4.88308 1.10702 4.87724 2.47602C4.87141 3.83983 3.77901 4.92219 2.41756 4.91311C1.07005 4.90436 -0.00548954 3.80806 2.1081e-05 2.44911Z" fill="white"/>
</svg>
