<svg width="320" height="51" viewBox="0 0 320 51" fill="none" xmlns="http://www.w3.org/2000/svg">
<path d="M93.9077 23.2107V23.1405C93.9077 15.9755 99.4248 10.3536 106.873 10.3536C111.897 10.3536 115.13 12.462 117.309 15.4829L112.179 19.4527C110.774 17.6614 109.193 16.5722 106.803 16.5722C103.36 16.5722 100.935 19.4866 100.935 23.0703V23.1405C100.935 26.8284 103.358 29.7089 106.803 29.7089C109.368 29.7089 110.844 28.5143 112.355 26.7242L117.485 30.377C115.13 33.5734 112.073 35.9262 106.592 35.9262C99.5653 35.9251 93.9077 30.5525 93.9077 23.2107Z" fill="white"/>
<path d="M120.088 24.6496V10.8448H127.01V24.5092C127.01 28.0567 128.767 29.7426 131.543 29.7426C134.319 29.7426 136.076 28.1608 136.076 24.6836V10.8448H142.999V24.4741C142.999 32.4477 138.466 35.8898 131.474 35.8898C124.445 35.891 120.088 32.3775 120.088 24.6496Z" fill="white"/>
<path d="M147.041 10.8448H159.655C162.747 10.8448 164.925 11.6182 166.366 13.0573C167.35 14.0413 167.947 15.34 167.947 17.0271V17.0973C167.947 19.9427 166.366 21.6275 164.153 22.5764C167.14 23.5604 169.037 25.2475 169.037 28.5832V28.6534C169.037 32.9028 165.629 35.4323 159.726 35.4323H147.041V10.8448ZM157.969 20.6459C160.077 20.6459 161.201 19.9439 161.201 18.5036V18.4334C161.201 17.0645 160.182 16.3263 158.109 16.3263H153.682V20.6459H157.969ZM158.952 29.9532C161.061 29.9532 162.22 29.1448 162.22 27.7057V27.6355C162.22 26.2654 161.165 25.423 158.882 25.423H153.681V29.9532H158.952Z" fill="white"/>
<path d="M172.167 10.8448H191.949V16.641H178.914V20.3639H190.72V25.7389H178.914V29.6385H192.126V35.4347H172.168V10.8448H172.167Z" fill="white"/>
<path d="M196.905 10.8447H199.681V32.8687H213.525V35.4334H196.905V10.8447Z" fill="#0EA5E9"/>
<path d="M217.076 26.442V26.3718C217.076 21.2086 221.046 16.8878 226.563 16.8878C232.044 16.8878 236.015 21.1735 236.015 26.3016V26.3718C236.015 31.535 231.973 35.8546 226.493 35.8546C221.046 35.8546 217.076 31.5689 217.076 26.442ZM233.239 26.442V26.3718C233.239 22.4722 230.322 19.2769 226.493 19.2769C222.557 19.2769 219.852 22.4734 219.852 26.3016V26.3718C219.852 30.2714 222.733 33.4327 226.563 33.4327C230.498 33.4316 233.239 30.2351 233.239 26.442Z" fill="#0EA5E9"/>
<path d="M238.792 40.2457L239.705 38.1034C240.584 38.5597 241.391 38.7703 242.551 38.7703C244.203 38.7703 245.187 37.9279 246.275 35.3633L238.018 17.2728H241.005L247.611 32.4126L253.444 17.2728H256.325L248.7 36.0314C247.154 39.7894 245.362 41.1595 242.656 41.1595C241.147 41.1595 240.022 40.8436 238.792 40.2457Z" fill="#0EA5E9"/>
<path d="M258.366 30.1652V30.095C258.366 26.1954 261.529 24.1596 266.132 24.1596C268.486 24.1596 270.031 24.4755 271.684 24.9318V24.3702C271.684 21.1386 269.716 19.4527 266.307 19.4527C264.164 19.4527 262.478 19.9452 260.791 20.7525L259.982 18.5401C261.985 17.5912 263.918 16.9945 266.588 16.9945C269.153 16.9945 271.121 17.6614 272.456 18.9964C273.721 20.2611 274.353 22.0512 274.353 24.3351V35.436H271.683V32.731C270.417 34.3818 268.345 35.8221 265.147 35.8221C261.739 35.8209 258.366 33.9232 258.366 30.1652ZM271.718 28.76V27.074C270.347 26.6879 268.661 26.3018 266.412 26.3018C263.039 26.3018 261.107 27.7409 261.107 29.9546V30.0248C261.107 32.3074 263.251 33.6424 265.675 33.6424C269.012 33.6424 271.718 31.6756 271.718 28.76Z" fill="#0EA5E9"/>
<path d="M280.328 9.79199H283.034V35.4348H280.328V9.79199Z" fill="#0EA5E9"/>
<path d="M290.273 30.6213V19.6631H287.742V17.274H290.273V11.7937H292.979V17.2728H298.742V19.6619H292.979V30.2703C292.979 32.5178 294.209 33.2912 296.036 33.2912C296.984 33.2912 297.722 33.1145 298.671 32.6582V34.9772C297.723 35.5037 296.704 35.7494 295.404 35.7494C292.451 35.7494 290.273 34.3103 290.273 30.6213Z" fill="#0EA5E9"/>
<path d="M302.467 40.2457L303.38 38.1034C304.259 38.5597 305.066 38.7703 306.226 38.7703C307.877 38.7703 308.862 37.9279 309.95 35.3633L301.693 17.2728H304.68L311.285 32.4126L317.119 17.2728H320L312.375 36.0314C310.829 39.7894 309.037 41.1595 306.331 41.1595C304.82 41.1595 303.696 40.8436 302.467 40.2457Z" fill="#0EA5E9"/>
<path d="M49.119 50.7243H25.2576C19.6738 50.7243 14.516 48.9131 10.3367 45.8489C8.2499 44.3174 6.40775 42.477 4.87691 40.3897C1.81055 36.2117 0 31.0566 0 25.4734C0 19.8937 1.81173 14.7387 4.87223 10.5606C6.40307 8.47455 8.2499 6.63298 10.3367 5.10145C13.0964 3.07736 16.2774 1.60082 19.7312 0.830964C21.5113 0.435505 23.3581 0.226074 25.2576 0.226074H40.3483V0.244795C40.3483 0.925732 40.2816 1.58795 40.1576 2.23262C40.0019 3.04693 39.7479 3.8203 39.4097 4.55506C38.6712 6.15679 37.5324 7.53504 36.1257 8.56815C34.4169 9.82238 32.3126 10.5606 30.0327 10.5606H25.2576C17.0159 10.5606 10.3367 17.2378 10.3367 25.4734C10.3367 33.7125 17.0159 40.3897 25.2576 40.3897H39.199C40.8258 40.4552 42.3555 40.8963 43.7049 41.6287C43.7084 41.6311 43.7131 41.6322 43.7166 41.6358C43.9285 41.7645 44.1368 41.8955 44.3358 42.0219C45.0356 42.4629 45.6805 42.993 46.2493 43.5885C47.69 45.0896 48.6837 47.0318 49.0067 49.1893C49.009 49.1998 49.0102 49.2091 49.0102 49.2197C49.0219 49.2957 49.0313 49.3706 49.0406 49.4478C49.0512 49.5285 49.0605 49.6093 49.0687 49.6912C49.1027 50.0305 49.119 50.3756 49.119 50.7243Z" fill="white"/>
<path d="M86.4291 50.7067V50.7242H71.5081C69.5501 50.7242 67.6459 50.5019 65.812 50.0796C62.4214 49.3015 59.2884 47.8332 56.5696 45.836C54.491 44.3103 52.6536 42.4723 51.1274 40.3908C50.046 38.9225 49.1249 37.3348 48.3864 35.6488C47.0112 32.5343 46.2505 29.0957 46.2505 25.4746V0.244751C50.2953 0.244751 53.7982 2.57187 55.4847 5.95667C56.1787 7.34429 56.5708 8.90623 56.5708 10.5606V25.4722C56.5708 33.7113 63.25 40.3885 71.4871 40.3885H76.1112C80.3034 40.3885 83.9163 42.8888 85.5279 46.483C86.1038 47.7747 86.4291 49.2032 86.4291 50.7067Z" fill="#0EA5E9"/>
</svg>
