<svg width="103" height="28" viewBox="0 0 103 28" fill="none" xmlns="http://www.w3.org/2000/svg">
<path d="M52.376 6.60142V6.56506C52.376 2.8861 55.2192 0 59.0588 0C61.6486 0 63.3147 1.08215 64.4374 2.63318L61.793 4.67102C61.0687 3.7517 60.2534 3.19216 59.0223 3.19216C57.2472 3.19216 55.998 4.68892 55.998 6.52868V6.56506C55.998 8.45853 57.2477 9.93739 59.0223 9.93739C60.3444 9.93739 61.1047 9.32413 61.8835 8.40481L64.5279 10.2798C63.3141 11.9209 61.7385 13.129 58.9132 13.129C55.2917 13.1295 52.376 10.371 52.376 6.60142Z" fill="#164E63"/>
<path d="M65.8696 7.34057V0.253464H69.4378V7.26895C69.4378 9.09024 70.343 9.95584 71.7742 9.95584C73.2048 9.95584 74.1106 9.14396 74.1106 7.35847V0.253464H77.6787V7.25104C77.6787 11.3446 75.3423 13.1122 71.7382 13.1122C68.1156 13.1122 65.8696 11.3082 65.8696 7.34057Z" fill="#164E63"/>
<path d="M79.7617 0.253464H86.2636C87.8572 0.253464 88.9799 0.650735 89.7227 1.38988C90.2296 1.89515 90.5375 2.56212 90.5375 3.42772V3.46409C90.5375 4.92504 89.7227 5.79009 88.5815 6.27745C90.1211 6.78271 91.0988 7.64831 91.0988 9.36162V9.39799C91.0988 11.5796 89.3423 12.8789 86.2995 12.8789H79.7617V0.253464ZM85.3943 5.28483C86.481 5.28483 87.0604 4.92448 87.0604 4.18478V4.14841C87.0604 3.44563 86.535 3.06682 85.4668 3.06682H83.1849V5.28483H85.3943ZM85.9017 10.0638C86.9885 10.0638 87.5863 9.64922 87.5863 8.91007V8.8737C87.5863 8.17036 87.043 7.73728 85.8658 7.73728H83.1854V10.0633H85.9017V10.0638Z" fill="#164E63"/>
<path d="M92.7119 0.253464H102.908V3.22908H96.189V5.14047H102.275V7.89955H96.189V9.90157H102.999V12.8772H92.7119V0.253464Z" fill="#164E63"/>
<path d="M52.376 15.4527H53.5172V24.4747H59.2105V25.525H52.376V15.4527Z" fill="#0EA5E9"/>
<path d="M60.6714 21.8421V21.8136C60.6714 19.6985 62.3043 17.9281 64.5733 17.9281C66.8277 17.9281 68.4606 19.6834 68.4606 21.7845V21.813C68.4606 23.9281 66.799 25.6979 64.5446 25.6979C62.3043 25.6979 60.6714 23.9426 60.6714 21.8421ZM67.3182 21.8421V21.8136C67.3182 20.2161 66.1191 18.9068 64.5435 18.9068C62.9252 18.9068 61.8126 20.2161 61.8126 21.7845V21.813C61.8126 23.4105 62.9977 24.7053 64.5727 24.7053C66.191 24.7058 67.3182 23.3959 67.3182 21.8421Z" fill="#0EA5E9"/>
<path d="M69.6021 27.4968L69.9781 26.6189C70.3394 26.8058 70.672 26.8925 71.1485 26.8925C71.8279 26.8925 72.2324 26.5473 72.6803 25.497L69.2847 18.0859H70.513L73.2298 24.2878L75.6286 18.0859H76.8137L73.6777 25.7701C73.0416 27.3099 72.3049 27.8706 71.1924 27.8706C70.5703 27.8706 70.1079 27.7413 69.6021 27.4968Z" fill="#0EA5E9"/>
<path d="M77.6519 23.3668V23.3383C77.6519 21.7408 78.9521 20.9065 80.8452 20.9065C81.8134 20.9065 82.4489 21.0358 83.1282 21.2227V20.9927C83.1282 19.6688 82.3191 18.9778 80.9171 18.9778C80.0355 18.9778 79.3421 19.1792 78.6487 19.5105L78.316 18.604C79.1398 18.2157 79.9343 17.9706 81.0329 17.9706C82.0876 17.9706 82.8967 18.2443 83.4463 18.7909C83.9666 19.3091 84.2268 20.0426 84.2268 20.9782V25.5255H83.1288V24.4176C82.6085 25.0936 81.7561 25.6839 80.4412 25.6839C79.0392 25.6839 77.6519 24.9067 77.6519 23.3668ZM83.1434 22.7916V22.1006C82.5798 21.9422 81.8864 21.7845 80.9615 21.7845C79.5742 21.7845 78.7796 22.3742 78.7796 23.2807V23.3092C78.7796 24.2447 79.6612 24.7914 80.6581 24.7914C82.0303 24.7914 83.1434 23.9862 83.1434 22.7916Z" fill="#0EA5E9"/>
<path d="M86.6836 15.0213H87.7962V25.5255H86.6836V15.0213Z" fill="#0EA5E9"/>
<path d="M90.7731 23.5537V19.0646H89.7324V18.0859H90.7731V15.8416H91.8857V18.0859H94.2558V19.0646H91.8857V23.4099C91.8857 24.3304 92.3914 24.6476 93.1427 24.6476C93.5326 24.6476 93.8366 24.5754 94.2266 24.3886V25.3386C93.8366 25.5546 93.4174 25.6548 92.8825 25.6548C91.6693 25.6548 90.7731 25.065 90.7731 23.5537Z" fill="#0EA5E9"/>
<path d="M95.7887 27.4968L96.1646 26.6189C96.5259 26.8058 96.8586 26.8925 97.3351 26.8925C98.0144 26.8925 98.419 26.5473 98.8668 25.497L95.4712 18.0859H96.6995L99.4164 24.2878L101.815 18.0859H103L99.8642 25.7701C99.2281 27.3099 98.4915 27.8706 97.3789 27.8706C96.7568 27.8706 96.2944 27.7413 95.7887 27.4968Z" fill="#0EA5E9"/>
<path d="M27.0234 27.6832H13.8955C10.8235 27.6832 7.98587 26.6911 5.68653 25.0114C4.53855 24.1726 3.52486 23.1632 2.68312 22.0201C0.996829 19.7304 0 16.9053 0 13.8458C0 10.7885 0.996267 7.96337 2.68031 5.67375C3.52205 4.53061 4.53855 3.5212 5.68653 2.68246C7.20482 1.57345 8.95517 0.763803 10.855 0.342471C11.8344 0.125371 12.8503 0.0106659 13.8955 0.0106659H22.1977V0.020738C22.1977 0.39395 22.1612 0.757089 22.0926 1.11016C22.0067 1.55667 21.8673 1.98024 21.6808 2.38255C21.2745 3.2599 20.648 4.01584 19.8742 4.58209C18.9341 5.26976 17.776 5.67375 16.5224 5.67375H13.8955C9.36143 5.67375 5.68653 9.33312 5.68653 13.8458C5.68653 18.3607 9.36143 22.0201 13.8955 22.0201H21.565C22.4596 22.0559 23.3019 22.2976 24.0436 22.6994C24.0458 22.7005 24.0481 22.7016 24.0503 22.7033C24.1672 22.7738 24.2813 22.8454 24.3909 22.9148C24.7758 23.1565 25.1309 23.4469 25.4433 23.7731C26.2356 24.5956 26.7823 25.6599 26.9605 26.8422C26.9616 26.8478 26.9622 26.8534 26.9627 26.859C26.9689 26.9004 26.9745 26.9418 26.9796 26.9837C26.9852 27.0279 26.9902 27.0721 26.9947 27.1169C27.0138 27.3027 27.0234 27.4918 27.0234 27.6832Z" fill="#164E63"/>
<path d="M47.5488 27.6731V27.6827H39.3398C38.2626 27.6827 37.2147 27.5607 36.206 27.329C34.3405 26.9027 32.6171 26.098 31.1213 25.0036C29.9778 24.1676 28.967 23.1605 28.1275 22.0196C27.5324 21.215 27.0256 20.3449 26.6193 19.4211C25.863 17.7145 25.4443 15.83 25.4443 13.8459V0.0207977C27.6695 0.0207977 29.5963 1.29598 30.5246 3.15085C30.9067 3.91126 31.1219 4.76735 31.1219 5.67381V13.8453C31.1219 18.3602 34.7968 22.0196 39.328 22.0196H41.8718C44.1779 22.0196 46.1659 23.3899 47.052 25.3595C47.3701 26.0667 47.5488 26.8489 47.5488 27.6731Z" fill="#0EA5E9"/>
</svg>
