<svg width="137" height="40" viewBox="0 0 137 40" fill="none" xmlns="http://www.w3.org/2000/svg">
<rect width="137" height="40" rx="20" fill="#164E63"/>
<path d="M36.1259 25H33.4761V23.1555H36.0364C36.6728 23.1555 37.2081 23.0429 37.6423 22.8175C38.0798 22.5888 38.4079 22.2358 38.6266 21.7585C38.8487 21.2779 38.9597 20.6581 38.9597 19.8991C38.9597 19.1468 38.8487 18.532 38.6266 18.0547C38.4079 17.5774 38.0814 17.2261 37.6472 17.0007C37.213 16.7753 36.6778 16.6626 36.0414 16.6626H33.4313V14.8182H36.1557C37.1799 14.8182 38.0615 15.022 38.8006 15.4297C39.5397 15.834 40.1082 16.4157 40.5059 17.1747C40.9069 17.9337 41.1075 18.8419 41.1075 19.8991C41.1075 20.9598 40.9069 21.8712 40.5059 22.6335C40.1082 23.3958 39.5364 23.9808 38.7907 24.3885C38.0483 24.7962 37.16 25 36.1259 25ZM34.6692 14.8182V25H32.5165V14.8182H34.6692ZM31.1046 20.2571V19.0043H36.0613V20.2571H31.1046ZM44.8399 25.1442C44.3527 25.1442 43.9185 25.0597 43.5373 24.8906C43.1562 24.7183 42.8546 24.4647 42.6325 24.13C42.4137 23.7919 42.3044 23.371 42.3044 22.8672C42.3044 22.4429 42.3823 22.0866 42.538 21.7983C42.6938 21.5099 42.9059 21.2779 43.1744 21.1023C43.4429 20.9266 43.7478 20.794 44.0892 20.7045C44.4339 20.6151 44.7951 20.5521 45.173 20.5156C45.6171 20.4692 45.9751 20.4261 46.2468 20.3864C46.5186 20.3433 46.7158 20.2803 46.8385 20.1974C46.9611 20.1146 47.0224 19.992 47.0224 19.8295V19.7997C47.0224 19.4848 46.923 19.2412 46.7241 19.0689C46.5286 18.8965 46.2501 18.8104 45.8889 18.8104C45.5077 18.8104 45.2045 18.8949 44.9791 19.0639C44.7537 19.2296 44.6046 19.4384 44.5316 19.6903L42.5728 19.5312C42.6723 19.0672 42.8678 18.6662 43.1595 18.3281C43.4511 17.9867 43.8273 17.7249 44.288 17.5426C44.752 17.357 45.289 17.2642 45.8988 17.2642C46.3231 17.2642 46.7291 17.3139 47.1169 17.4134C47.508 17.5128 47.8543 17.6669 48.1559 17.8757C48.4608 18.0845 48.7011 18.353 48.8768 18.6811C49.0525 19.0059 49.1403 19.3954 49.1403 19.8494V25H47.1318V23.9411H47.0721C46.9495 24.1797 46.7854 24.3902 46.5799 24.5724C46.3744 24.7514 46.1275 24.8923 45.8392 24.995C45.5508 25.0945 45.2177 25.1442 44.8399 25.1442ZM45.4464 23.6825C45.758 23.6825 46.0331 23.6212 46.2717 23.4986C46.5103 23.3726 46.6976 23.2036 46.8335 22.9915C46.9694 22.7794 47.0373 22.5391 47.0373 22.2706V21.4602C46.971 21.5033 46.8799 21.5431 46.7639 21.5795C46.6512 21.6127 46.5236 21.6442 46.3811 21.674C46.2385 21.7005 46.096 21.7254 45.9535 21.7486C45.811 21.7685 45.6817 21.7867 45.5657 21.8033C45.3171 21.8397 45.1001 21.8977 44.9144 21.9773C44.7288 22.0568 44.5847 22.1645 44.4819 22.3004C44.3792 22.433 44.3278 22.5987 44.3278 22.7976C44.3278 23.0859 44.4322 23.3063 44.641 23.4588C44.8531 23.608 45.1216 23.6825 45.4464 23.6825ZM46.9627 14.6989H48.4393C48.436 15.3021 48.2123 15.7876 47.7681 16.1555C47.3273 16.5234 46.7307 16.7074 45.9784 16.7074C45.2227 16.7074 44.6244 16.5234 44.1836 16.1555C43.7428 15.7876 43.5224 15.3021 43.5224 14.6989H44.989C44.9857 14.9276 45.0586 15.133 45.2078 15.3153C45.3602 15.4976 45.6171 15.5888 45.9784 15.5888C46.3297 15.5888 46.5816 15.4993 46.734 15.3203C46.8865 15.1413 46.9627 14.9342 46.9627 14.6989ZM52.9013 20.5852V25H50.7834V17.3636H52.8019V18.7109H52.8914C53.0604 18.2668 53.3438 17.9155 53.7415 17.657C54.1392 17.3951 54.6215 17.2642 55.1882 17.2642C55.7185 17.2642 56.1809 17.3802 56.5753 17.6122C56.9697 17.8442 57.2763 18.1757 57.4951 18.6065C57.7138 19.0341 57.8232 19.5445 57.8232 20.1378V25H55.7053V20.5156C55.7086 20.0483 55.5893 19.6837 55.3473 19.4219C55.1054 19.1567 54.7723 19.0241 54.348 19.0241C54.063 19.0241 53.8111 19.0855 53.5924 19.2081C53.3769 19.3307 53.2079 19.5097 53.0853 19.745C52.9659 19.977 52.9046 20.2571 52.9013 20.5852ZM62.9327 28.0227C62.2467 28.0227 61.6584 27.9283 61.1678 27.7393C60.6806 27.5537 60.2928 27.3002 60.0045 26.9787C59.7161 26.6572 59.5289 26.2959 59.4427 25.8949L61.4015 25.6314C61.4611 25.7839 61.5556 25.9264 61.6849 26.0589C61.8141 26.1915 61.9848 26.2976 62.1969 26.3771C62.4124 26.46 62.6742 26.5014 62.9825 26.5014C63.4432 26.5014 63.8227 26.3887 64.1209 26.1634C64.4226 25.9413 64.5734 25.5684 64.5734 25.0447V23.6477H64.4839C64.3911 23.8598 64.2519 24.0604 64.0663 24.2493C63.8807 24.4382 63.642 24.5923 63.3503 24.7116C63.0587 24.831 62.7107 24.8906 62.3063 24.8906C61.7329 24.8906 61.2109 24.758 60.7403 24.4929C60.2729 24.2244 59.9001 23.8151 59.6217 23.2649C59.3466 22.7114 59.209 22.0121 59.209 21.1669C59.209 20.3018 59.3499 19.5793 59.6316 18.9993C59.9133 18.4193 60.2878 17.9851 60.7552 17.6967C61.2258 17.4084 61.7412 17.2642 62.3013 17.2642C62.7289 17.2642 63.0869 17.3371 63.3752 17.483C63.6636 17.6255 63.8956 17.8045 64.0712 18.0199C64.2502 18.232 64.3878 18.4408 64.4839 18.6463H64.5634V17.3636H66.6664V25.0746C66.6664 25.7242 66.5073 26.2678 66.1891 26.7053C65.8709 27.1428 65.4301 27.4709 64.8667 27.6896C64.3066 27.9117 63.6619 28.0227 62.9327 28.0227ZM62.9775 23.2997C63.3189 23.2997 63.6072 23.2152 63.8425 23.0462C64.0812 22.8738 64.2635 22.6286 64.3894 22.3104C64.5187 21.9889 64.5833 21.6044 64.5833 21.157C64.5833 20.7095 64.5203 20.3217 64.3944 19.9936C64.2684 19.6622 64.0861 19.4053 63.8475 19.223C63.6089 19.0407 63.3189 18.9496 62.9775 18.9496C62.6295 18.9496 62.3361 19.044 62.0975 19.233C61.8589 19.4186 61.6782 19.6771 61.5556 20.0085C61.433 20.34 61.3717 20.7228 61.3717 21.157C61.3717 21.5978 61.433 21.9789 61.5556 22.3004C61.6816 22.6186 61.8622 22.8655 62.0975 23.0412C62.3361 23.2135 62.6295 23.2997 62.9775 23.2997ZM73.7099 20.5852V25H71.592V17.3636H73.6105V18.7109H73.7C73.869 18.2668 74.1524 17.9155 74.5501 17.657C74.9478 17.3951 75.4301 17.2642 75.9968 17.2642C76.5271 17.2642 76.9895 17.3802 77.3839 17.6122C77.7783 17.8442 78.0849 18.1757 78.3037 18.6065C78.5224 19.0341 78.6318 19.5445 78.6318 20.1378V25H76.5139V20.5156C76.5172 20.0483 76.3979 19.6837 76.1559 19.4219C75.914 19.1567 75.5809 19.0241 75.1566 19.0241C74.8716 19.0241 74.6197 19.0855 74.401 19.2081C74.1855 19.3307 74.0165 19.5097 73.8939 19.745C73.7745 19.977 73.7132 20.2571 73.7099 20.5852ZM82.4189 20.5852V25H80.301V14.8182H82.3592V18.7109H82.4487C82.6211 18.2602 82.8995 17.9072 83.2839 17.652C83.6684 17.3935 84.1507 17.2642 84.7307 17.2642C85.261 17.2642 85.7233 17.3802 86.1178 17.6122C86.5155 17.8409 86.8237 18.1707 87.0425 18.6016C87.2645 19.0291 87.3739 19.5412 87.3706 20.1378V25H85.2527V20.5156C85.256 20.045 85.1367 19.6787 84.8947 19.4169C84.6561 19.1551 84.3213 19.0241 83.8905 19.0241C83.6021 19.0241 83.3469 19.0855 83.1249 19.2081C82.9061 19.3307 82.7338 19.5097 82.6078 19.745C82.4852 19.977 82.4222 20.2571 82.4189 20.5852ZM91.2149 25.1442C90.7277 25.1442 90.2935 25.0597 89.9123 24.8906C89.5312 24.7183 89.2296 24.4647 89.0075 24.13C88.7887 23.7919 88.6794 23.371 88.6794 22.8672C88.6794 22.4429 88.7573 22.0866 88.913 21.7983C89.0688 21.5099 89.2809 21.2779 89.5494 21.1023C89.8179 20.9266 90.1228 20.794 90.4642 20.7045C90.8089 20.6151 91.1701 20.5521 91.548 20.5156C91.9921 20.4692 92.3501 20.4261 92.6218 20.3864C92.8936 20.3433 93.0908 20.2803 93.2135 20.1974C93.3361 20.1146 93.3974 19.992 93.3974 19.8295V19.7997C93.3974 19.4848 93.298 19.2412 93.0991 19.0689C92.9036 18.8965 92.6251 18.8104 92.2639 18.8104C91.8827 18.8104 91.5795 18.8949 91.3541 19.0639C91.1287 19.2296 90.9796 19.4384 90.9066 19.6903L88.9478 19.5312C89.0473 19.0672 89.2428 18.6662 89.5345 18.3281C89.8261 17.9867 90.2023 17.7249 90.663 17.5426C91.127 17.357 91.664 17.2642 92.2738 17.2642C92.6981 17.2642 93.1041 17.3139 93.4919 17.4134C93.883 17.5128 94.2293 17.6669 94.5309 17.8757C94.8358 18.0845 95.0761 18.353 95.2518 18.6811C95.4275 19.0059 95.5153 19.3954 95.5153 19.8494V25H93.5068V23.9411H93.4471C93.3245 24.1797 93.1604 24.3902 92.9549 24.5724C92.7494 24.7514 92.5025 24.8923 92.2142 24.995C91.9258 25.0945 91.5927 25.1442 91.2149 25.1442ZM91.8214 23.6825C92.133 23.6825 92.4081 23.6212 92.6467 23.4986C92.8853 23.3726 93.0726 23.2036 93.2085 22.9915C93.3444 22.7794 93.4123 22.5391 93.4123 22.2706V21.4602C93.346 21.5033 93.2549 21.5431 93.1389 21.5795C93.0262 21.6127 92.8986 21.6442 92.7561 21.674C92.6135 21.7005 92.471 21.7254 92.3285 21.7486C92.186 21.7685 92.0567 21.7867 91.9407 21.8033C91.6921 21.8397 91.4751 21.8977 91.2894 21.9773C91.1038 22.0568 90.9597 22.1645 90.8569 22.3004C90.7542 22.433 90.7028 22.5987 90.7028 22.7976C90.7028 23.0859 90.8072 23.3063 91.016 23.4588C91.2281 23.608 91.4966 23.6825 91.8214 23.6825ZM93.3527 16.4489L92.3534 15.2358L91.3541 16.4489H89.5494V16.3793L91.5629 14.1918H93.1389L95.1573 16.3793V16.4489H93.3527ZM92.2689 27.8587C91.954 27.8587 91.6839 27.7543 91.4585 27.5455C91.2331 27.3366 91.1204 27.0848 91.1204 26.7898C91.1204 26.4948 91.2331 26.2429 91.4585 26.0341C91.6839 25.8253 91.954 25.7209 92.2689 25.7209C92.5837 25.7209 92.8522 25.8253 93.0742 26.0341C93.2996 26.2429 93.4123 26.4948 93.4123 26.7898C93.4123 27.0848 93.2996 27.3366 93.0742 27.5455C92.8522 27.7543 92.5837 27.8587 92.2689 27.8587ZM97.1584 27.8636V17.3636H99.2465V18.6463H99.3409C99.4337 18.4408 99.568 18.232 99.7436 18.0199C99.9226 17.8045 100.155 17.6255 100.44 17.483C100.728 17.3371 101.086 17.2642 101.514 17.2642C102.07 17.2642 102.584 17.41 103.055 17.7017C103.525 17.9901 103.902 18.4259 104.183 19.0092C104.465 19.5893 104.606 20.3168 104.606 21.1918C104.606 22.0436 104.468 22.7628 104.193 23.3494C103.921 23.9328 103.55 24.3752 103.08 24.6768C102.612 24.9751 102.089 25.1243 101.509 25.1243C101.098 25.1243 100.748 25.0563 100.46 24.9205C100.175 24.7846 99.9408 24.6139 99.7586 24.4084C99.5763 24.1996 99.4371 23.9891 99.3409 23.777H99.2763V27.8636H97.1584ZM99.2316 21.1818C99.2316 21.6359 99.2945 22.032 99.4205 22.37C99.5464 22.7081 99.7287 22.9716 99.9674 23.1605C100.206 23.3461 100.496 23.4389 100.837 23.4389C101.182 23.4389 101.474 23.3445 101.712 23.1555C101.951 22.9633 102.132 22.6982 102.254 22.3601C102.38 22.0187 102.443 21.6259 102.443 21.1818C102.443 20.741 102.382 20.3532 102.259 20.0185C102.137 19.6837 101.956 19.4219 101.717 19.233C101.479 19.044 101.185 18.9496 100.837 18.9496C100.493 18.9496 100.201 19.0407 99.9624 19.223C99.7271 19.4053 99.5464 19.6638 99.4205 19.9986C99.2945 20.3333 99.2316 20.7277 99.2316 21.1818Z" fill="white"/>
</svg>
