<svg width="25" height="20" viewBox="0 0 25 20" fill="none" xmlns="http://www.w3.org/2000/svg">
<path d="M7.10198 15.648C6.98452 15.6266 6.86748 15.6014 6.74958 15.5839C4.85155 15.3018 3.50759 14.2862 2.74362 12.5018C2.72074 12.4486 2.70346 12.3928 2.68575 12.3374C2.63911 12.1926 2.6918 12.1368 2.84166 12.1421C3.22213 12.1565 3.6039 12.1774 3.98393 12.1665C4.21541 12.1599 4.44516 12.0989 4.67578 12.0623C4.67664 12.0392 4.67751 12.0156 4.67794 11.9925C4.59372 11.9637 4.50994 11.9323 4.42443 11.9061C3.56546 11.6415 2.78552 11.2446 2.1537 10.5788C1.45667 9.84357 1.06325 8.96665 0.917277 7.9698C0.886614 7.76224 0.872363 7.55075 0.866317 7.341C0.85768 7.04273 0.881864 7.05232 1.15307 7.14172C1.68383 7.31658 2.22539 7.45786 2.76349 7.61005C2.80754 7.6227 2.8585 7.61179 2.95869 7.61179C2.86325 7.50758 2.80106 7.43214 2.73153 7.36498C2.14377 6.7981 1.64194 6.16537 1.3025 5.41491C0.648658 3.97066 0.727689 2.55215 1.4692 1.16328C1.57198 0.970978 1.6251 0.968798 1.76546 1.13232C3.88417 3.60611 6.5695 5.11489 9.69618 5.85751C10.3034 6.00185 10.9287 6.07249 11.5476 6.16188C11.8335 6.20331 11.8611 6.15883 11.8188 5.86754C11.6119 4.43812 11.9255 3.13996 12.7879 1.98352C14.3309 -0.08604 17.2663 -0.620654 19.4222 0.781727C19.7167 0.973595 19.9892 1.2034 20.2557 1.43495C20.3874 1.5492 20.5048 1.58496 20.6651 1.52173C21.5417 1.17506 22.4202 0.831438 23.2977 0.487384C23.3672 0.460348 23.4385 0.437236 23.5624 0.393194C23.4506 1.03159 23.1375 1.5069 22.76 1.92901C22.3865 2.34676 21.9615 2.71698 21.5396 3.12731C22.4482 3.04751 23.2938 2.74053 24.1459 2.46144C24.1636 2.48238 24.1809 2.50374 24.1986 2.52467C24.0526 2.72308 23.9291 2.94417 23.7563 3.1151C23.1776 3.68984 22.5869 4.25279 21.9874 4.80529C21.8415 4.9396 21.7624 5.06736 21.7672 5.26839C21.8095 7 21.5465 8.68451 20.9864 10.3219C20.5748 11.5246 20.0095 12.6496 19.3012 13.6992C18.365 15.0868 17.2197 16.2759 15.8714 17.2588C13.852 18.7305 11.6076 19.6188 9.12742 19.9053C7.47252 20.0963 5.83706 19.9973 4.22016 19.6179C2.79545 19.2835 1.44976 18.738 0.195634 17.9718C0.152448 17.9456 0.110125 17.9182 0.069098 17.8889C0.0583015 17.8815 0.0526873 17.8663 0 17.79C2.68057 18.0791 5.02602 17.3391 7.10933 15.7274C7.1076 15.7021 7.10458 15.675 7.10198 15.648Z" fill="white"/>
</svg>
