<svg width="17" height="20" viewBox="0 0 17 20" fill="none" xmlns="http://www.w3.org/2000/svg">
<path d="M5.89845 19.9986C5.82686 19.9917 5.75666 19.9807 5.68508 19.9793C4.78342 19.9601 3.88176 19.9518 2.9801 19.9215C2.59191 19.9091 2.20096 19.9133 1.82102 19.7908C0.832642 19.4714 0.156742 18.5794 0.118198 17.5428C0.0934198 16.8848 0.0397333 16.2295 0.0122017 15.5715C-0.00431718 15.1613 -0.000187445 14.7497 0.00256571 14.3381C0.00669544 13.7242 0.00807202 13.1088 0.0314738 12.4949C0.0534991 11.925 0.0892901 11.3551 0.147106 10.7893C0.24209 9.8615 1.03775 8.98049 1.95868 8.79328C2.30283 8.72307 2.66074 8.70931 3.01314 8.69416C5.61074 8.59092 8.20972 8.61019 10.8073 8.62396C12.0517 8.63084 13.2975 8.66113 14.542 8.72032C15.7286 8.77676 16.644 9.68943 16.7954 10.7673C16.8354 11.0467 16.856 11.3303 16.8656 11.6125C16.8973 12.5885 16.9345 13.5659 16.9427 14.5432C16.9482 15.2329 16.9193 15.9239 16.8877 16.6122C16.867 17.0693 16.8519 17.5318 16.7665 17.9792C16.5738 18.9937 15.7162 19.7605 14.692 19.8802C14.4553 19.9078 14.2157 19.9174 13.9762 19.9243C13.1145 19.9449 12.2527 19.9614 11.391 19.9807C11.3084 19.9821 11.2244 19.9931 11.1418 20C9.39633 19.9986 7.64808 19.9986 5.89845 19.9986ZM9.94834 12.5568C9.94834 12.499 9.94834 12.4605 9.94834 12.4219C9.94834 11.7832 9.94834 11.1445 9.94834 10.5057C9.94834 10.3708 9.9208 10.3419 9.78728 10.3406C9.46791 10.3392 9.14854 10.3419 8.82918 10.3392C8.7163 10.3378 8.67225 10.386 8.67363 10.4989C8.67776 10.7384 8.675 10.9779 8.675 11.2174C8.675 13.4337 8.675 15.6486 8.675 17.8649C8.675 18.0397 8.69015 18.0549 8.86772 18.0549C9.14717 18.0549 9.42661 18.0549 9.70606 18.0549C9.93044 18.0549 9.93044 18.0549 9.95797 17.8415C10.0874 17.9076 10.2126 17.9847 10.3475 18.0384C10.9546 18.2793 11.5534 18.0453 11.753 17.474C11.8219 17.2785 11.8549 17.0624 11.8576 16.8545C11.8673 15.7959 11.8659 14.7387 11.859 13.6801C11.8576 13.4874 11.8329 13.2892 11.7847 13.1006C11.5851 12.3022 10.8307 11.9842 10.1562 12.404C10.0915 12.4495 10.0296 12.499 9.94834 12.5568ZM13.7312 15.4215C13.7656 15.4215 13.8083 15.4215 13.8523 15.4215C14.4029 15.4215 14.9536 15.4215 15.5056 15.4215C15.6364 15.4215 15.668 15.3898 15.668 15.2604C15.668 14.7855 15.6721 14.3106 15.6666 13.8357C15.6625 13.5232 15.613 13.2176 15.4698 12.934C15.255 12.5087 14.9068 12.265 14.4387 12.1907C14.012 12.1218 13.5976 12.1507 13.2177 12.382C12.6506 12.7262 12.4028 13.2451 12.4 13.8935C12.3973 14.7277 12.3959 15.5619 12.4028 16.3961C12.4042 16.5902 12.4234 16.7884 12.4688 16.977C12.6189 17.5841 12.9589 18.0287 13.6031 18.1636C13.8 18.2049 14.0079 18.2063 14.2102 18.1967C14.8861 18.1664 15.3514 17.7975 15.5593 17.1546C15.6763 16.7912 15.6735 16.4168 15.6694 16.0423C15.668 15.8978 15.6295 15.8606 15.4822 15.8592C15.1793 15.8579 14.8751 15.8592 14.5723 15.8592C14.3919 15.8592 14.3616 15.8923 14.3575 16.0767C14.352 16.3163 14.3493 16.5544 14.3286 16.7926C14.3231 16.8573 14.2735 16.9412 14.2199 16.977C14.012 17.1106 13.7518 16.9991 13.7394 16.7554C13.716 16.3163 13.7312 15.8771 13.7312 15.4215ZM6.6418 17.6185C6.6418 17.7314 6.6418 17.814 6.6418 17.898C6.64317 18.0342 6.6652 18.0563 6.80423 18.0563C7.11121 18.0563 7.41956 18.0563 7.72654 18.0563C7.86833 18.0563 7.8876 18.0384 7.8876 17.8993C7.8876 16.0836 7.8876 14.2665 7.88898 12.4508C7.88898 12.3352 7.84355 12.298 7.73205 12.2994C7.43333 12.3049 7.13324 12.3008 6.83452 12.3008C6.65556 12.3008 6.6418 12.3146 6.6418 12.4908C6.6418 13.8164 6.6418 15.1407 6.64042 16.4663C6.64042 16.509 6.6473 16.5709 6.62253 16.5902C6.48211 16.7031 6.34033 16.8201 6.18477 16.9096C6.08979 16.9633 6.02096 16.9027 6.00995 16.7898C6.00307 16.7224 6.00031 16.6549 6.00031 16.5875C5.99894 15.9928 6.00031 15.3981 6.00031 14.8034C6.00031 14.0325 6.00031 13.263 6.00031 12.4921C6.00031 12.3283 5.97691 12.3022 5.82824 12.3022C5.52126 12.3008 5.21291 12.3035 4.90593 12.3008C4.79581 12.2994 4.74763 12.3421 4.74763 12.4563C4.749 14.0408 4.74625 15.6252 4.75176 17.2097C4.75313 17.4506 4.80544 17.6873 4.96926 17.8773C5.20878 18.1526 5.51989 18.1705 5.84614 18.0907C6.14761 18.0191 6.39539 17.8456 6.6418 17.6185ZM2.40056 11.6621C2.40056 11.7213 2.40056 11.7639 2.40056 11.8066C2.40056 12.1783 2.40056 12.5486 2.40056 12.9203C2.40056 14.5653 2.40056 16.2089 2.40056 17.8539C2.40056 18.0384 2.41984 18.0563 2.60705 18.0576C2.94293 18.0576 3.27744 18.0576 3.61333 18.0576C3.75236 18.0576 3.76888 18.0411 3.77163 17.8993C3.77301 17.8635 3.77163 17.8278 3.77163 17.792C3.77163 15.8042 3.77163 13.8164 3.77163 11.8286C3.77163 11.7777 3.77163 11.7281 3.77163 11.6634C3.83083 11.6634 3.8735 11.6634 3.91618 11.6634C4.21214 11.6634 4.50673 11.6634 4.80269 11.6634C4.95136 11.6634 4.98715 11.629 4.98715 11.4831C4.98715 11.1637 4.98715 10.8444 4.98715 10.525C4.98715 10.3708 4.95962 10.3419 4.80682 10.3419C3.66151 10.3419 2.5162 10.3419 1.37088 10.3419C1.2346 10.3419 1.2112 10.364 1.20982 10.5016C1.20845 10.8334 1.20845 11.1637 1.20982 11.4955C1.20982 11.64 1.23323 11.6621 1.37501 11.6621C1.70952 11.6621 2.04403 11.6621 2.40056 11.6621Z" fill="white"/>
<path d="M10.0943 4.69969C10.0943 5.21866 10.1011 5.73763 10.0915 6.2566C10.086 6.55119 10.0075 6.82925 9.82995 7.07291C9.58905 7.40466 9.24766 7.56435 8.85533 7.60977C8.55386 7.64556 8.24826 7.6373 7.96194 7.51066C7.48426 7.29867 7.2296 6.91598 7.14425 6.41215C7.12498 6.29927 7.11947 6.18226 7.11947 6.06663C7.11809 5.11679 7.12635 4.16558 7.11672 3.21574C7.10846 2.34849 7.75545 1.8488 8.51119 1.81438C8.92003 1.79649 9.29446 1.87633 9.61245 2.15302C9.91943 2.42145 10.0901 2.75596 10.0943 3.16618C10.0998 3.67689 10.0956 4.18898 10.0956 4.69969C10.0943 4.69969 10.0943 4.69969 10.0943 4.69969ZM9.05631 4.70244C9.05631 4.19173 9.05769 3.68102 9.05494 3.17031C9.05356 2.97621 8.95032 2.84406 8.77687 2.80139C8.52358 2.73944 8.31709 2.80001 8.2345 2.97897C8.19595 3.06156 8.18081 3.16343 8.17943 3.25566C8.1753 4.01415 8.17668 4.77127 8.17668 5.52976C8.17668 5.74589 8.17393 5.96063 8.17806 6.17676C8.18219 6.43693 8.26065 6.57046 8.4341 6.62827C8.76861 6.73978 9.05218 6.54017 9.05494 6.18639C9.05907 5.6922 9.05631 5.19801 9.05631 4.70244Z" fill="white"/>
<path d="M5.83375 7.46656C5.43867 7.46656 5.06149 7.46656 4.67192 7.46656C4.67192 7.41287 4.67192 7.36607 4.67192 7.31926C4.67192 6.52911 4.66503 5.73895 4.67605 4.9488C4.68017 4.65834 4.63199 4.38302 4.54665 4.10633C4.1323 2.7683 3.72621 1.42751 3.31736 0.0881009C3.3091 0.061946 3.30497 0.0344144 3.29671 0C3.68491 0 4.06622 0 4.45717 0C4.53839 0.320743 4.61961 0.642862 4.70082 0.964981C4.86188 1.60371 5.02157 2.24107 5.184 2.8798C5.19226 2.91146 5.22392 2.93762 5.24457 2.96652C5.26247 2.93486 5.28862 2.90458 5.29688 2.87016C5.52264 1.94923 5.74702 1.0283 5.97278 0.10875C5.98104 0.0743352 5.99205 0.0399207 6.00307 0C6.38575 0 6.76707 0 7.1649 0C7.09607 0.228512 7.02724 0.45427 6.95841 0.678653C6.59362 1.88178 6.22882 3.08491 5.86541 4.28804C5.84476 4.35549 5.83375 4.42845 5.83375 4.49865C5.83237 5.4361 5.83237 6.37493 5.83237 7.31238C5.83375 7.36056 5.83375 7.40736 5.83375 7.46656Z" fill="white"/>
<path d="M12.8804 1.96317C13.226 1.96317 13.5563 1.96317 13.8936 1.96317C13.8936 3.79814 13.8936 5.62761 13.8936 7.46535C13.5591 7.46535 13.226 7.46535 12.8791 7.46535C12.8791 7.27951 12.8791 7.0978 12.8791 6.90783C12.7345 7.03172 12.6079 7.15149 12.4702 7.25611C12.2679 7.40891 12.0476 7.52178 11.7888 7.54656C11.3414 7.58924 11.0964 7.35797 11.0042 6.93812C10.9821 6.839 10.9766 6.73301 10.9766 6.63114C10.9753 5.11415 10.9753 3.59716 10.9753 2.08155C10.9753 2.04576 10.9753 2.01135 10.9753 1.96729C11.3208 1.96729 11.658 1.96729 12.0132 1.96729C12.0132 2.01272 12.0132 2.05815 12.0132 2.10495C12.0132 3.44987 12.0132 4.79478 12.0132 6.1397C12.0132 6.20302 12.0118 6.26772 12.0173 6.33105C12.0325 6.51413 12.155 6.60085 12.3339 6.54992C12.5528 6.4866 12.7166 6.34206 12.857 6.17136C12.8846 6.13832 12.8818 6.07363 12.8818 6.02407C12.8832 4.72733 12.8832 3.42922 12.8832 2.13248C12.8804 2.0788 12.8804 2.02786 12.8804 1.96317Z" fill="white"/>
<path d="M9.94834 15.1834C9.94834 14.6603 9.94834 14.1372 9.94834 13.6155C9.94834 13.4861 10.064 13.3636 10.2099 13.3388C10.3654 13.3113 10.4852 13.3746 10.5251 13.5233C10.5513 13.6224 10.5623 13.727 10.5623 13.8302C10.565 14.7567 10.5637 15.6817 10.5637 16.6082C10.5637 16.6839 10.5554 16.7596 10.5485 16.8353C10.5348 16.9881 10.4577 17.0542 10.3049 17.0487C10.0832 17.0404 9.94834 16.9014 9.94834 16.6811C9.94834 16.1814 9.94834 15.6817 9.94834 15.1834Z" fill="white"/>
<path d="M14.3561 14.3249C14.1331 14.3249 13.9308 14.3249 13.7078 14.3249C13.7229 14.0537 13.6692 13.7839 13.7504 13.521C13.7862 13.4026 13.884 13.36 14.0643 13.3627C14.1882 13.3641 14.2845 13.4081 14.3217 13.5334C14.341 13.6009 14.3534 13.6738 14.3547 13.744C14.3589 13.934 14.3561 14.124 14.3561 14.3249Z" fill="white"/>
</svg>
